<?xml version="1.0" encoding="UTF-8"?>
<svg width="165px" height="283px" viewBox="0 0 165 283" version="1.1" xmlns="http://www.w3.org/2000/svg" xmlns:xlink="http://www.w3.org/1999/xlink">
    <!-- Generator: Sketch 48.2 (47327) - http://www.bohemiancoding.com/sketch -->
    <title>Artboard</title>
    <desc>Created with Sketch.</desc>
    <defs></defs>
    <g id="Page-1" stroke="none" stroke-width="1" fill="none" fill-rule="evenodd">
        <g id="Artboard">
            <path d="M0.0315578527,49 C0.0315578527,42.7568281 -0.524489639,29.354705 3.03155785,18.5 C3.74027397,16.33667 5.74027397,14.5033366 9.03155785,13 L21.5714941,13 C28.0072741,15.5484788 32.493962,17.8818121 35.0315579,20 C37.5691537,22.1181879 41.0691537,26.4515212 45.5315579,33 C86.8659355,27.5596937 113.032602,23.2263603 124.031558,20 C135.030514,16.7736397 146.363847,10.106973 158.031558,0 C162.031558,21.3333333 164.031558,37.5 164.031558,48.5 C164.031558,59.5 162.031558,75.6666667 158.031558,97 C146.363847,86.893027 135.030514,80.2263603 124.031558,77 C113.032602,73.7736397 86.8659355,69.4403063 45.5315579,64 C41.0691537,70.5484788 37.5691537,74.8818121 35.0315579,77 C32.493962,79.1181879 28.0072741,81.4515212 21.5714941,84 L9.03155785,84 C5.74027397,82.4966634 3.74027397,80.66333 3.03155785,78.5 C-0.524489639,67.645295 0.0315578527,54.2431719 0.0315578527,48" id="Path-2-Copy" fill="#86BBD8" transform="translate(82.015779, 48.500000) scale(1, -1) translate(-82.015779, -48.500000) "></path>
            <path d="M75,89.5 L30.5,89.5 L23.5,94.5 L23.5,98 L13.9627104,105.464148 L13.9627104,109.508072 L7,116.470782 L7,270.5 C10.3164116,274.633796 13.8164116,277.300462 17.5,278.5 C29.4941774,282.40583 46.6718792,283 53.7526737,283 C60.8334682,283 78.0111701,282.40583 90.0053474,278.5 C93.6889359,277.300462 97.1889359,274.633796 100.505347,270.5 L100.505347,116.470782 L93.542637,109.508072 L93.542637,105.464148 L84.0053474,98 L84.0053474,94.5 L77.0053474,89.5 L32.5053474,89.5" id="Path" fill="#F6AE2D"></path>
        </g>
    </g>
</svg>